# xmcd
#
# Track frame offsets: 
#        150
#        37481
#        64307
#        95405
#        113791
#        142207
#        164649
#
# Disc length: 2550 seconds
#
# Revision: 0
# Processed by: cddbd v1.5.2PL0 Copyright (c) Steve Scherf et al.
# Submitted via: ExactAudioCopy v0.99pb5
#
DISCID=6f09f407
DTITLE=Nicole Hart and the NRG Band - Live NRG
DYEAR=2006
DGENRE=Blues
TTITLE0=I Heard
TTITLE1=VooDoo Woman
TTITLE2=Treasure
TTITLE3=Every Night of the Week
TTITLE4=It Hurt So Bad
TTITLE5=Think About Love
TTITLE6=Hot'Lanta
EXTD=
EXTT0=
EXTT1=
EXTT2=
EXTT3=
EXTT4=
EXTT5=
EXTT6=
PLAYORDER=
